0
SECTION
2
HEADER
9
$INSUNITS
70
4
9
$ACADVER
1
AC1014
9
$HANDSEED
5
FFFF
0
ENDSEC
0
SECTION
2
TABLES
0
TABLE
2
VPORT
5
8
100
AcDbSymbolTable
0
ENDTAB
0
TABLE
2
LTYPE
5
5
100
AcDbSymbolTable
0
LTYPE
5
14
100
AcDbSymbolTableRecord
100
AcDbLinetypeTableRecord
2
BYBLOCK
70
0
0
LTYPE
5
15
100
AcDbSymbolTableRecord
100
AcDbLinetypeTableRecord
2
BYLAYER
70
0
0
ENDTAB
0
TABLE
2
LAYER
5
2
100
AcDbSymbolTable
70
2
0
LAYER
5
50
100
AcDbSymbolTableRecord
100
AcDbLayerTableRecord
2
0
70
0
6
CONTINUOUS
0
ENDTAB
0
TABLE
2
STYLE
5
3
100
AcDbSymbolTable
70
1
0
STYLE
5
11
100
AcDbSymbolTableRecord
100
AcDbTextStyleTableRecord
2
STANDARD
70
0
0
ENDTAB
0
TABLE
2
VIEW
5
6
100
AcDbSymbolTable
70
0
0
ENDTAB
0
TABLE
2
UCS
5
7
100
AcDbSymbolTable
70
0
0
ENDTAB
0
TABLE
2
APPID
5
9
100
AcDbSymbolTable
70
2
0
APPID
5
12
100
AcDbSymbolTableRecord
100
AcDbRegAppTableRecord
2
ACAD
70
0
0
ENDTAB
0
TABLE
2
DIMSTYLE
5
A
100
AcDbSymbolTable
70
1
0
ENDTAB
0
TABLE
2
BLOCK_RECORD
5
1
100
AcDbSymbolTable
70
1
0
BLOCK_RECORD
5
1F
100
AcDbSymbolTableRecord
100
AcDbBlockTableRecord
2
*MODEL_SPACE
0
BLOCK_RECORD
5
1B
100
AcDbSymbolTableRecord
100
AcDbBlockTableRecord
2
*PAPER_SPACE
0
ENDTAB
0
ENDSEC
0
SECTION
2
BLOCKS
0
BLOCK
5
20
100
AcDbEntity
100
AcDbBlockBegin
2
*MODEL_SPACE
0
ENDBLK
5
21
100
AcDbEntity
100
AcDbBlockEnd
0
BLOCK
5
1C
100
AcDbEntity
100
AcDbBlockBegin
2
*PAPER_SPACE
0
ENDBLK
5
1D
100
AcDbEntity
100
AcDbBlockEnd
0
ENDSEC
0
SECTION
2
ENTITIES
0
LINE
5
100
100
AcDbEntity
8
0
100
AcDbLine
10
-236.39814352495745
20
-33.281762759419699
30
0
11
-236.3981435249575
21
-54.281762759419713
31
0
0
LINE
5
101
100
AcDbEntity
8
0
100
AcDbLine
10
-272.77121048390381
20
29.718237240580414
30
0
11
-254.58467700443055
21
40.218237240580386
31
0
0
LINE
5
102
100
AcDbEntity
8
0
100
AcDbLine
10
-236.3981435249575
20
-54.281762759419713
30
0
11
-218.21161004548426
21
-64.781762759419749
31
0
0
LINE
5
103
100
AcDbEntity
8
0
100
AcDbLine
10
-254.58467700443055
20
40.218237240580386
30
0
11
-254.58467700443055
21
61.218237240580329
31
0
0
CIRCLE
5
104
100
AcDbEntity
8
0
100
AcDbCircle
10
-163.65200960706457
20
-12.281762759419754
30
0
40
5
0
CIRCLE
5
105
100
AcDbEntity
8
0
100
AcDbCircle
10
-181.83854308653781
20
-43.781762759419742
30
0
40
5
0
LINE
5
106
100
AcDbEntity
8
0
100
AcDbLine
10
-254.58467700443055
20
61.218237240580329
30
0
11
-254.58467700443055
21
40.218237240580386
31
0
0
LINE
5
107
100
AcDbEntity
8
0
100
AcDbLine
10
-272.77121048390387
20
8.718237240580331
30
0
11
-254.58467700443063
21
-1.7817627594196406
31
0
0
LINE
5
108
100
AcDbEntity
8
0
100
AcDbLine
10
-254.58467700443063
20
-1.7817627594196406
30
0
11
-254.58467700443069
21
-22.781762759419657
31
0
0
LINE
5
109
100
AcDbEntity
8
0
100
AcDbLine
10
-272.77121048390381
20
29.718237240580414
30
0
11
-272.77121048390387
21
8.718237240580331
31
0
0
LINE
5
110
100
AcDbEntity
8
0
100
AcDbLine
10
-254.58467700443069
20
-22.781762759419657
30
0
11
-236.39814352495745
21
-33.281762759419699
31
0
0
LINE
5
111
100
AcDbEntity
8
0
100
AcDbLine
10
-218.21161004548426
20
-64.781762759419749
30
0
11
-200.02507656601108
21
-54.281762759419784
31
0
0
LINE
5
112
100
AcDbEntity
8
0
100
AcDbLine
10
-200.02507656601108
20
-54.281762759419713
30
0
11
-181.83854308653781
21
-64.781762759419749
31
0
0
CIRCLE
5
113
100
AcDbEntity
8
0
100
AcDbCircle
10
-145.46547612759139
20
-43.781762759419813
30
0
40
5
0
CIRCLE
5
114
100
AcDbEntity
8
0
100
AcDbCircle
10
-218.21161004548418
20
19.218237240580301
30
0
40
5
0
CIRCLE
5
115
100
AcDbEntity
8
0
100
AcDbCircle
10
-109.09240916864493
20
-43.781762759419813
30
0
40
5
0
CIRCLE
5
116
100
AcDbEntity
8
0
100
AcDbCircle
10
-254.58467700443063
20
19.218237240580372
30
0
40
5
0
CIRCLE
5
117
100
AcDbEntity
8
0
100
AcDbCircle
10
-218.21161004548426
20
-43.781762759419742
30
0
40
5
0
CIRCLE
5
118
100
AcDbEntity
8
0
100
AcDbCircle
10
-236.39814352495745
20
-12.281762759419683
30
0
40
5
0
LINE
5
119
100
AcDbEntity
8
0
100
AcDbLine
10
-181.83854308653781
20
-64.781762759419749
30
0
11
-163.65200960706463
21
-54.281762759419784
31
0
0
LINE
5
120
100
AcDbEntity
8
0
100
AcDbLine
10
-163.65200960706463
20
-54.281762759419784
30
0
11
-145.46547612759139
21
-64.78176275941982
31
0
0
LINE
5
121
100
AcDbEntity
8
0
100
AcDbLine
10
-72.71934220969851
20
-64.781762759419891
30
0
11
-90.905875689171694
21
-54.281762759419856
31
0
0
LINE
5
122
100
AcDbEntity
8
0
100
AcDbLine
10
-109.09240916864493
20
-64.78176275941982
30
0
11
-90.905875689171694
21
-54.281762759419856
31
0
0
LINE
5
123
100
AcDbEntity
8
0
100
AcDbLine
10
-127.2789426481182
20
-54.281762759419784
30
0
11
-109.09240916864493
21
-64.78176275941982
31
0
0
LINE
5
124
100
AcDbEntity
8
0
100
AcDbLine
10
-72.71934220969851
20
-64.781762759419891
30
0
11
-54.532808730225248
21
-54.281762759419856
31
0
0
LINE
5
125
100
AcDbEntity
8
0
100
AcDbLine
10
-54.532808730225248
20
-54.281762759419856
30
0
11
-72.71934220969851
21
-64.781762759419891
31
0
0
LINE
5
126
100
AcDbEntity
8
0
100
AcDbLine
10
-90.905875689171694
20
-54.281762759419856
30
0
11
-72.71934220969851
21
-64.781762759419891
31
0
0
LINE
5
127
100
AcDbEntity
8
0
100
AcDbLine
10
-145.46547612759139
20
-64.78176275941982
30
0
11
-127.2789426481182
21
-54.281762759419856
31
0
0
CIRCLE
5
128
100
AcDbEntity
8
0
100
AcDbCircle
10
-200.02507656601099
20
-12.281762759419683
30
0
40
5
0
LINE
5
129
100
AcDbEntity
8
0
100
AcDbLine
10
-355.04362384342528
20
119.21823724058044
30
0
11
-8.63346232965025
21
-80.781762759419706
31
0
0
ARC
5
130
100
AcDbEntity
8
0
100
AcDbCircle
10
-181.83854308653775
20
19.218237240580301
30
0
40
200.00000000000003
100
AcDbArc
50
149.99999999999991
51
329.99999999999994
0
ARC
5
131
100
AcDbEntity
8
0
100
AcDbCircle
10
-236.39814352495736
20
50.718237240580358
30
0
40
4.9999999999999796
100
AcDbArc
50
149.99999999999997
51
330.00000000000023
0
ARC
5
132
100
AcDbEntity
8
0
100
AcDbCircle
10
-181.83854308653775
20
19.218237240580301
30
0
40
4.9999999999999796
100
AcDbArc
50
149.9999999999998
51
329.99999999999994
0
ARC
5
133
100
AcDbEntity
8
0
100
AcDbCircle
10
-127.27894264811812
20
-12.281762759419754
30
0
40
4.9999999999999796
100
AcDbArc
50
149.99999999999997
51
329.99999999999977
0
ARC
5
134
100
AcDbEntity
8
0
100
AcDbCircle
10
-72.71934220969851
20
-43.781762759419813
30
0
40
5.0000000000000053
100
AcDbArc
50
150.00000000000099
51
329.99999999999926
0
ARC
5
135
100
AcDbEntity
8
0
100
AcDbCircle
10
11.614257650910993
20
-81.768514114606432
30
0
40
5.0000000000000142
100
AcDbArc
50
-30.000000000000675
51
150.00000000000065
0
ARC
5
136
100
AcDbEntity
8
0
100
AcDbCircle
10
-97.504943225928287
20
-18.768514114606305
30
0
40
4.9999999999999947
100
AcDbArc
50
-30.000000000000071
51
149.99999999999997
0
ARC
5
137
100
AcDbEntity
8
0
100
AcDbCircle
10
-42.945342787508665
20
-50.268514114606361
30
0
40
5.0000000000000098
100
AcDbArc
50
-29.999999999999915
51
150.00000000000009
0
CIRCLE
5
138
100
AcDbEntity
8
0
100
AcDbCircle
10
-61.131876266981848
20
-18.768514114606305
30
0
40
5
0
LINE
5
139
100
AcDbEntity
8
0
100
AcDbLine
10
-270.71002398281581
20
81.231485885393823
30
0
11
-156.39467068327005
21
15.231485885393754
31
0
0
LINE
5
140
100
AcDbEntity
8
0
100
AcDbLine
10
29.800791130384177
20
-92.268514114606461
30
0
11
29.800791130384212
21
-71.268514114606447
31
0
0
LINE
5
141
100
AcDbEntity
8
0
100
AcDbLine
10
11.614257650910957
20
-60.768514114606475
30
0
11
11.614257650910993
21
-39.768514114606461
31
0
0
LINE
5
142
100
AcDbEntity
8
0
100
AcDbLine
10
-6.5722758285622263
20
-29.268514114606418
30
0
11
11.614257650910993
21
-39.76851411460639
31
0
0
CIRCLE
5
143
100
AcDbEntity
8
0
100
AcDbCircle
10
-24.758809308035445
20
-18.768514114606376
30
0
40
5
0
CIRCLE
5
144
100
AcDbEntity
8
0
100
AcDbCircle
10
-97.50494322592823
20
44.231485885393738
30
0
40
5
0
LINE
5
145
100
AcDbEntity
8
0
100
AcDbLine
10
29.800791130384212
20
-71.268514114606447
30
0
11
11.614257650910993
21
-60.768514114606475
31
0
0
LINE
5
146
100
AcDbEntity
8
0
100
AcDbLine
10
29.800791130384248
20
-71.268514114606447
30
0
11
29.800791130384212
21
-92.268514114606461
31
0
0
LINE
5
147
100
AcDbEntity
8
0
100
AcDbLine
10
-6.5722758285622263
20
-29.268514114606418
30
0
11
-6.5722758285621907
21
-8.2685141146064023
31
0
0
LWPOLYLINE
5
148
100
AcDbEntity
8
0
100
AcDbPolyline
90
2
70
1
43
0.0
10
-156.39467068327008
20
15.231485885393754
42
-0.99999999999999989
10
-147.73441664542565
20
10.231485885393754
0
LINE
5
149
100
AcDbEntity
8
0
100
AcDbLine
10
-6.5722758285621907
20
-8.2685141146064023
30
0
11
-6.5722758285622263
21
-29.268514114606418
31
0
0
LINE
5
150
100
AcDbEntity
8
0
100
AcDbLine
10
11.614257650910993
20
-39.768514114606461
30
0
11
-6.5722758285622263
21
-29.268514114606418
31
0
0
CIRCLE
5
151
100
AcDbEntity
8
0
100
AcDbCircle
10
-79.318409746455046
20
12.731485885393683
30
0
40
5
0
CIRCLE
5
152
100
AcDbEntity
8
0
100
AcDbCircle
10
-133.87801018487468
20
44.231485885393738
30
0
40
5
0
LINE
5
153
100
AcDbEntity
8
0
100
AcDbLine
10
-6.5722758285621907
20
-8.2685141146064023
30
0
11
-24.75880930803541
21
2.2314858853936403
31
0
0
CIRCLE
5
154
100
AcDbEntity
8
0
100
AcDbCircle
10
-61.131876266981813
20
44.231485885393667
30
0
40
5
0
LINE
5
155
100
AcDbEntity
8
0
100
AcDbLine
10
11.614257650910993
20
-60.768514114606475
30
0
11
29.800791130384177
21
-71.268514114606447
31
0
0
LINE
5
156
100
AcDbEntity
8
0
100
AcDbLine
10
-147.73441664542565
20
10.231485885393754
30
0
11
75.700137530959353
21
-118.7685141146066
31
0
0
CIRCLE
5
157
100
AcDbEntity
8
0
100
AcDbCircle
10
-42.945342787508629
20
12.731485885393683
30
0
40
5
0
CIRCLE
5
158
100
AcDbEntity
8
0
100
AcDbCircle
10
-115.69147670540148
20
12.731485885393754
30
0
40
5
0
LINE
5
159
100
AcDbEntity
8
0
100
AcDbLine
10
11.614257650910993
20
-39.768514114606461
30
0
11
11.614257650910993
21
-60.768514114606475
31
0
0
CIRCLE
5
160
100
AcDbEntity
8
0
100
AcDbCircle
10
-6.5722758285622618
20
-50.268514114606432
30
0
40
5
0
LINE
5
161
100
AcDbEntity
8
0
100
AcDbLine
10
-42.945342787508594
20
54.73148588539371
30
0
11
-42.945342787508629
21
33.731485885393695
31
0
0
LINE
5
162
100
AcDbEntity
8
0
100
AcDbLine
10
-42.945342787508629
20
33.731485885393695
30
0
11
-24.758809308035374
21
23.231485885393653
31
0
0
LINE
5
163
100
AcDbEntity
8
0
100
AcDbLine
10
-42.945342787508558
20
54.73148588539371
30
0
11
-61.131876266981791
21
65.231485885393752
31
0
0
LINE
5
164
100
AcDbEntity
8
0
100
AcDbLine
10
-24.758809308035374
20
23.231485885393653
30
0
11
-24.75880930803541
21
2.2314858853936403
31
0
0
LINE
5
165
100
AcDbEntity
8
0
100
AcDbLine
10
-24.75880930803541
20
2.2314858853936403
30
0
11
-6.5722758285621907
21
-8.2685141146063312
31
0
0
LINE
5
166
100
AcDbEntity
8
0
100
AcDbLine
10
-24.75880930803541
20
2.2314858853936403
30
0
11
-24.758809308035374
21
23.231485885393653
31
0
0
LINE
5
167
100
AcDbEntity
8
0
100
AcDbLine
10
-61.131876266981791
20
65.231485885393752
30
0
11
-79.318409746455032
21
54.73148588539371
31
0
0
LINE
5
168
100
AcDbEntity
8
0
100
AcDbLine
10
-24.758809308035374
20
23.231485885393653
30
0
11
-42.945342787508594
21
33.731485885393695
31
0
0
LINE
5
169
100
AcDbEntity
8
0
100
AcDbLine
10
-42.945342787508594
20
33.731485885393695
30
0
11
-42.945342787508558
21
54.73148588539371
31
0
0
LINE
5
170
100
AcDbEntity
8
0
100
AcDbLine
10
-79.318409746454989
20
54.73148588539371
30
0
11
-97.504943225928216
21
65.231485885393752
31
0
0
LINE
5
171
100
AcDbEntity
8
0
100
AcDbLine
10
-97.504943225928216
20
65.231485885393752
30
0
11
-115.69147670540144
21
54.731485885393781
31
0
0
LINE
5
172
100
AcDbEntity
8
0
100
AcDbLine
10
-152.06454366434787
20
33.731485885393695
30
0
11
-170.25107714382105
21
23.231485885393724
31
0
0
LINE
5
173
100
AcDbEntity
8
0
100
AcDbLine
10
-133.87801018487465
20
65.231485885393752
30
0
11
-152.06454366434789
21
54.731485885393781
31
0
0
LINE
5
174
100
AcDbEntity
8
0
100
AcDbLine
10
-115.69147670540144
20
54.731485885393781
30
0
11
-133.87801018487465
21
65.231485885393752
31
0
0
LINE
5
175
100
AcDbEntity
8
0
100
AcDbLine
10
-152.06454366434789
20
54.731485885393781
30
0
11
-152.06454366434792
21
33.731485885393766
31
0
0
ARC
5
176
100
AcDbEntity
8
0
100
AcDbCircle
10
-97.504943225928287
20
-18.768514114606305
30
0
40
200
100
AcDbArc
50
-30.000000000000071
51
149.99999999999991
0
ARC
5
177
100
AcDbEntity
8
0
100
AcDbCircle
10
-181.83854308653775
20
19.218237240580301
30
0
40
200.00000000000003
100
AcDbArc
50
149.99999999999991
51
329.99999999999994
0
ARC
5
178
100
AcDbEntity
8
0
100
AcDbCircle
10
-97.504943225928287
20
-18.768514114606305
30
0
40
200
100
AcDbArc
50
-30.000000000000071
51
149.99999999999991
0
LINE
5
179
100
AcDbEntity
8
0
100
AcDbLine
10
-384.99999999999994
20
-185
30
0
11
385.00000000000006
21
185
31
0
0
LINE
5
180
100
AcDbEntity
8
0
100
AcDbLine
10
385.00000000000006
20
-184.99999999999997
30
0
11
-385
21
185
31
0
0
LWPOLYLINE
5
181
100
AcDbEntity
8
0
100
AcDbPolyline
90
4
70
1
43
0.0
10
367.50721627862731
20
176.04123503112015
10
117.50721627862731
20
176.04123503112015
10
117.50721627862731
20
-103.95876496887986
10
367.50721627862731
20
-103.95876496887986
0
LINE
5
182
100
AcDbEntity
8
0
100
AcDbLine
10
117.50721627862731
20
36.041235031120138
30
0
11
367.50721627862731
21
36.041235031120138
31
0
0
LINE
5
183
100
AcDbEntity
8
0
100
AcDbLine
10
142.50721627862731
20
-103.95876496887986
30
0
11
142.50721627862731
21
176.04123503112015
31
0
0
LINE
5
184
100
AcDbEntity
8
0
100
AcDbLine
10
167.50721627862731
20
-103.95876496887986
30
0
11
167.50721627862731
21
176.04123503112015
31
0
0
LINE
5
185
100
AcDbEntity
8
0
100
AcDbLine
10
192.50721627862731
20
-103.95876496887986
30
0
11
192.50721627862731
21
176.04123503112015
31
0
0
LINE
5
186
100
AcDbEntity
8
0
100
AcDbLine
10
217.50721627862731
20
-103.95876496887986
30
0
11
217.50721627862731
21
176.04123503112015
31
0
0
LINE
5
187
100
AcDbEntity
8
0
100
AcDbLine
10
242.50721627862731
20
-103.95876496887986
30
0
11
242.50721627862731
21
176.04123503112015
31
0
0
LINE
5
188
100
AcDbEntity
8
0
100
AcDbLine
10
267.50721627862731
20
-103.95876496887986
30
0
11
267.50721627862731
21
176.04123503112015
31
0
0
LINE
5
189
100
AcDbEntity
8
0
100
AcDbLine
10
292.50721627862731
20
-103.95876496887986
30
0
11
292.50721627862731
21
176.04123503112015
31
0
0
LINE
5
190
100
AcDbEntity
8
0
100
AcDbLine
10
317.50721627862731
20
-103.95876496887986
30
0
11
317.50721627862731
21
176.04123503112015
31
0
0
LINE
5
191
100
AcDbEntity
8
0
100
AcDbLine
10
342.50721627862731
20
-103.95876496887986
30
0
11
342.50721627862731
21
176.04123503112015
31
0
0
LINE
5
192
100
AcDbEntity
8
0
100
AcDbLine
10
367.50721627862731
20
-103.95876496887986
30
0
11
367.50721627862731
21
176.04123503112015
31
0
0
LWPOLYLINE
5
193
100
AcDbEntity
8
0
100
AcDbPolyline
90
4
70
1
43
0.0
10
382.66760775541456
20
-134.21718570793124
10
-37.332392244585421
20
-134.21718570793124
10
-37.332392244585435
20
-184.21718570793121
10
382.66760775541456
20
-184.21718570793121
0
LINE
5
194
100
AcDbEntity
8
0
100
AcDbLine
10
-37.332392244585421
20
-159.21718570793121
30
0
11
382.66760775541456
21
-159.21718570793121
31
0
0
LINE
5
195
100
AcDbEntity
8
0
100
AcDbLine
10
102.66760775541458
20
-134.21718570793124
30
0
11
102.66760775541458
21
-184.21718570793121
31
0
0
LINE
5
196
100
AcDbEntity
8
0
100
AcDbLine
10
242.66760775541456
20
-134.21718570793124
30
0
11
242.66760775541456
21
-184.21718570793121
31
0
0
LINE
5
197
100
AcDbEntity
8
0
100
AcDbLine
10
342.50721627862731
20
-103.95876496887986
30
0
11
342.50721627862731
21
176.04123503112015
31
0
0
LINE
5
198
100
AcDbEntity
8
0
100
AcDbLine
10
367.50721627862731
20
-103.95876496887986
30
0
11
367.50721627862731
21
176.04123503112015
31
0
0
LINE
5
199
100
AcDbEntity
8
0
100
AcDbLine
10
292.50721627862731
20
-103.95876496887986
30
0
11
292.50721627862731
21
176.04123503112015
31
0
0
LINE
5
200
100
AcDbEntity
8
0
100
AcDbLine
10
317.50721627862731
20
-103.95876496887986
30
0
11
317.50721627862731
21
176.04123503112015
31
0
0
LINE
5
201
100
AcDbEntity
8
0
100
AcDbLine
10
192.50721627862731
20
-103.95876496887986
30
0
11
192.50721627862731
21
176.04123503112015
31
0
0
LINE
5
202
100
AcDbEntity
8
0
100
AcDbLine
10
167.50721627862731
20
-103.95876496887986
30
0
11
167.50721627862731
21
176.04123503112015
31
0
0
LINE
5
203
100
AcDbEntity
8
0
100
AcDbLine
10
142.50721627862731
20
-103.95876496887986
30
0
11
142.50721627862731
21
176.04123503112015
31
0
0
LWPOLYLINE
5
204
100
AcDbEntity
8
0
100
AcDbPolyline
90
4
70
1
43
0.0
10
117.50721627862731
20
176.04123503112015
10
117.50721627862731
20
-103.95876496887986
10
367.50721627862731
20
-103.95876496887986
10
367.50721627862731
20
176.04123503112015
0
LINE
5
205
100
AcDbEntity
8
0
100
AcDbLine
10
217.50721627862731
20
-103.95876496887986
30
0
11
217.50721627862731
21
176.04123503112015
31
0
0
LINE
5
206
100
AcDbEntity
8
0
100
AcDbLine
10
242.50721627862731
20
-103.95876496887986
30
0
11
242.50721627862731
21
176.04123503112015
31
0
0
LINE
5
207
100
AcDbEntity
8
0
100
AcDbLine
10
267.50721627862731
20
-103.95876496887986
30
0
11
267.50721627862731
21
176.04123503112015
31
0
0
LINE
5
208
100
AcDbEntity
8
0
100
AcDbLine
10
117.50721627862731
20
36.041235031120138
30
0
11
367.50721627862731
21
36.041235031120138
31
0
0
LINE
5
209
100
AcDbEntity
8
0
100
AcDbLine
10
342.50721627862731
20
-103.95876496887986
30
0
11
342.50721627862731
21
176.04123503112015
31
0
0
LINE
5
210
100
AcDbEntity
8
0
100
AcDbLine
10
367.50721627862731
20
-103.95876496887986
30
0
11
367.50721627862731
21
176.04123503112015
31
0
0
LINE
5
211
100
AcDbEntity
8
0
100
AcDbLine
10
292.50721627862731
20
-103.95876496887986
30
0
11
292.50721627862731
21
176.04123503112015
31
0
0
LINE
5
212
100
AcDbEntity
8
0
100
AcDbLine
10
317.50721627862731
20
-103.95876496887986
30
0
11
317.50721627862731
21
176.04123503112015
31
0
0
LINE
5
213
100
AcDbEntity
8
0
100
AcDbLine
10
192.50721627862731
20
-103.95876496887986
30
0
11
192.50721627862731
21
176.04123503112015
31
0
0
LINE
5
214
100
AcDbEntity
8
0
100
AcDbLine
10
167.50721627862731
20
-103.95876496887986
30
0
11
167.50721627862731
21
176.04123503112015
31
0
0
LINE
5
215
100
AcDbEntity
8
0
100
AcDbLine
10
142.50721627862731
20
-103.95876496887986
30
0
11
142.50721627862731
21
176.04123503112015
31
0
0
LWPOLYLINE
5
216
100
AcDbEntity
8
0
100
AcDbPolyline
90
4
70
1
43
0.0
10
117.50721627862731
20
176.04123503112015
10
117.50721627862731
20
-103.95876496887986
10
367.50721627862731
20
-103.95876496887986
10
367.50721627862731
20
176.04123503112015
0
LINE
5
217
100
AcDbEntity
8
0
100
AcDbLine
10
217.50721627862731
20
-103.95876496887986
30
0
11
217.50721627862731
21
176.04123503112015
31
0
0
LINE
5
218
100
AcDbEntity
8
0
100
AcDbLine
10
242.50721627862731
20
-103.95876496887986
30
0
11
242.50721627862731
21
176.04123503112015
31
0
0
LINE
5
219
100
AcDbEntity
8
0
100
AcDbLine
10
267.50721627862731
20
-103.95876496887986
30
0
11
267.50721627862731
21
176.04123503112015
31
0
0
LINE
5
220
100
AcDbEntity
8
0
100
AcDbLine
10
117.50721627862731
20
36.041235031120138
30
0
11
367.50721627862731
21
36.041235031120138
31
0
0
ENDSEC
0
SECTION
2
OBJECTS
0
DICTIONARY
5
C
100
AcDbDictionary
3
ACAD_GROUP
350
D
3
ACAD_MLINESTYLE
350
17
0
DICTIONARY
5
D
100
AcDbDictionary
0
DICTIONARY
5
1A
330
C
100
AcDbDictionary
0
DICTIONARY
5
17
100
AcDbDictionary
0
ENDSEC
0
EOF
